<?xml version="1.0" encoding="UTF-8" standalone="no"?><svg xmlns="http://www.w3.org/2000/svg" xmlns:xlink="http://www.w3.org/1999/xlink" contentScriptType="application/ecmascript" contentStyleType="text/css" height="988px" preserveAspectRatio="none" style="width:2835px;height:988px;" version="1.1" viewBox="0 0 2835 988" width="2835px" zoomAndPan="magnify"><defs><filter height="300%" id="f1ozj0kbh931z2" width="300%" x="-1" y="-1"><feGaussianBlur result="blurOut" stdDeviation="2.0"/><feColorMatrix in="blurOut" result="blurOut2" type="matrix" values="0 0 0 0 0 0 0 0 0 0 0 0 0 0 0 0 0 0 .4 0"/><feOffset dx="4.0" dy="4.0" in="blurOut2" result="blurOut3"/><feBlend in="SourceGraphic" in2="blurOut3" mode="normal"/></filter></defs><g><!--MD5=[600d0db911510088eac6d54f1681a819]
cluster Client Layer--><polygon fill="#F3E5F5" filter="url(#f1ozj0kbh931z2)" points="2070.66,167,2170.66,167,2177.66,189.2969,2365.66,189.2969,2365.66,271,2070.66,271,2070.66,167" style="stroke: #000000; stroke-width: 1.5;"/><line style="stroke: #000000; stroke-width: 1.5;" x1="2070.66" x2="2177.66" y1="189.2969" y2="189.2969"/><text fill="#000000" font-family="sans-serif" font-size="14" font-weight="bold" lengthAdjust="spacingAndGlyphs" textLength="94" x="2074.66" y="181.9951">Client Layer</text><!--MD5=[70111191a764443d788a8690134af264]
cluster API Layer--><polygon fill="#F3E5F5" filter="url(#f1ozj0kbh931z2)" points="2132.66,404,2212.66,404,2219.66,426.2969,2290.66,426.2969,2290.66,524,2132.66,524,2132.66,404" style="stroke: #000000; stroke-width: 1.5;"/><line style="stroke: #000000; stroke-width: 1.5;" x1="2132.66" x2="2219.66" y1="426.2969" y2="426.2969"/><text fill="#000000" font-family="sans-serif" font-size="14" font-weight="bold" lengthAdjust="spacingAndGlyphs" textLength="74" x="2136.66" y="418.9951">API Layer</text><!--MD5=[0e0a8c1d5eff94cf58618b4a1ff13451]
cluster Business Logic Layer\n(Microservices)--><polygon fill="#F3E5F5" filter="url(#f1ozj0kbh931z2)" points="1515.66,573,1688.66,573,1695.66,611.5938,2523.66,611.5938,2523.66,823,1515.66,823,1515.66,573" style="stroke: #000000; stroke-width: 1.5;"/><line style="stroke: #000000; stroke-width: 1.5;" x1="1515.66" x2="1695.66" y1="611.5938" y2="611.5938"/><text fill="#000000" font-family="sans-serif" font-size="14" font-weight="bold" lengthAdjust="spacingAndGlyphs" textLength="167" x="1519.66" y="587.9951">Business Logic Layer</text><text fill="#000000" font-family="sans-serif" font-size="14" font-weight="bold" lengthAdjust="spacingAndGlyphs" textLength="122" x="1542.16" y="604.292">(Microservices)</text><!--MD5=[f05cc1003180af2150eb2781e7be6c2e]
cluster Data & Event Layer--><polygon fill="#F3E5F5" filter="url(#f1ozj0kbh931z2)" points="892.66,872,1049.66,872,1056.66,894.2969,1360.66,894.2969,1360.66,976,892.66,976,892.66,872" style="stroke: #000000; stroke-width: 1.5;"/><line style="stroke: #000000; stroke-width: 1.5;" x1="892.66" x2="1056.66" y1="894.2969" y2="894.2969"/><text fill="#000000" font-family="sans-serif" font-size="14" font-weight="bold" lengthAdjust="spacingAndGlyphs" textLength="151" x="896.66" y="886.9951">Data &amp; Event Layer</text><!--MD5=[13d7899ea3604682320811ddebea1115]
cluster External Services--><polygon fill="#F3E5F5" filter="url(#f1ozj0kbh931z2)" points="1629.66,872,1772.66,872,1779.66,894.2969,2091.66,894.2969,2091.66,976,1629.66,976,1629.66,872" style="stroke: #000000; stroke-width: 1.5;"/><line style="stroke: #000000; stroke-width: 1.5;" x1="1629.66" x2="1779.66" y1="894.2969" y2="894.2969"/><text fill="#000000" font-family="sans-serif" font-size="14" font-weight="bold" lengthAdjust="spacingAndGlyphs" textLength="137" x="1633.66" y="886.9951">External Services</text><!--MD5=[d0ec95c5f00c1e17ac34e02751b9c3b2]
entity CustomerPhone--><rect fill="#FFF3E0" filter="url(#f1ozj0kbh931z2)" height="52.5938" style="stroke: #333333; stroke-width: 1.5;" width="102" x="2086.66" y="202"/><rect fill="#FFF3E0" height="5" style="stroke: #333333; stroke-width: 1.5;" width="10" x="2081.66" y="207"/><rect fill="#FFF3E0" height="5" style="stroke: #333333; stroke-width: 1.5;" width="10" x="2081.66" y="244.5938"/><text fill="#000000" font-family="sans-serif" font-size="14" lengthAdjust="spacingAndGlyphs" textLength="82" x="2096.66" y="224.9951">QR Scanner</text><text fill="#000000" font-family="sans-serif" font-size="14" lengthAdjust="spacingAndGlyphs" textLength="55" x="2096.66" y="241.292">&amp; Menu</text><!--MD5=[98a6fadc6127a520ad8105996c46d846]
entity KitchenApp--><rect fill="#FFF3E0" filter="url(#f1ozj0kbh931z2)" height="52.5938" style="stroke: #333333; stroke-width: 1.5;" width="125" x="2224.16" y="202"/><rect fill="#FFF3E0" height="5" style="stroke: #333333; stroke-width: 1.5;" width="10" x="2219.16" y="207"/><rect fill="#FFF3E0" height="5" style="stroke: #333333; stroke-width: 1.5;" width="10" x="2219.16" y="244.5938"/><text fill="#000000" font-family="sans-serif" font-size="14" lengthAdjust="spacingAndGlyphs" textLength="105" x="2234.16" y="224.9951">Kitchen Display</text><text fill="#000000" font-family="sans-serif" font-size="14" lengthAdjust="spacingAndGlyphs" textLength="51" x="2234.16" y="241.292">System</text><!--MD5=[49cbbb1648246ecd0e2d56eda0c19f08]
entity Gateway--><rect fill="#FFF3E0" filter="url(#f1ozj0kbh931z2)" height="68.8906" style="stroke: #333333; stroke-width: 1.5;" width="125" x="2149.16" y="439"/><rect fill="#FFF3E0" height="5" style="stroke: #333333; stroke-width: 1.5;" width="10" x="2144.16" y="444"/><rect fill="#FFF3E0" height="5" style="stroke: #333333; stroke-width: 1.5;" width="10" x="2144.16" y="497.8906"/><text fill="#000000" font-family="sans-serif" font-size="14" lengthAdjust="spacingAndGlyphs" textLength="84" x="2159.16" y="461.9951">API Gateway</text><text fill="#000000" font-family="sans-serif" font-size="14" lengthAdjust="spacingAndGlyphs" textLength="68" x="2159.16" y="478.292">Port 3100</text><text fill="#000000" font-family="sans-serif" font-size="14" lengthAdjust="spacingAndGlyphs" textLength="105" x="2159.16" y="494.5889">(JWT Validation)</text><!--MD5=[a2f9698b646e75d4ce37066d9419562a]
entity AuthService--><rect fill="#FFF3E0" filter="url(#f1ozj0kbh931z2)" height="52.5938" style="stroke: #333333; stroke-width: 1.5;" width="106" x="2246.66" y="624"/><rect fill="#FFF3E0" height="5" style="stroke: #333333; stroke-width: 1.5;" width="10" x="2241.66" y="629"/><rect fill="#FFF3E0" height="5" style="stroke: #333333; stroke-width: 1.5;" width="10" x="2241.66" y="666.5938"/><text fill="#000000" font-family="sans-serif" font-size="14" lengthAdjust="spacingAndGlyphs" textLength="86" x="2256.66" y="646.9951">Auth Service</text><text fill="#000000" font-family="sans-serif" font-size="14" lengthAdjust="spacingAndGlyphs" textLength="81" x="2256.66" y="663.292">(OTP/Login)</text><!--MD5=[6034bfff1f2ea9f796e9472faf63db4e]
entity MenuService--><rect fill="#FFF3E0" filter="url(#f1ozj0kbh931z2)" height="52.5938" style="stroke: #333333; stroke-width: 1.5;" width="124" x="2214.66" y="754"/><rect fill="#FFF3E0" height="5" style="stroke: #333333; stroke-width: 1.5;" width="10" x="2209.66" y="759"/><rect fill="#FFF3E0" height="5" style="stroke: #333333; stroke-width: 1.5;" width="10" x="2209.66" y="796.5938"/><text fill="#000000" font-family="sans-serif" font-size="14" lengthAdjust="spacingAndGlyphs" textLength="93" x="2224.66" y="776.9951">Menu Service</text><text fill="#000000" font-family="sans-serif" font-size="14" lengthAdjust="spacingAndGlyphs" textLength="104" x="2224.66" y="793.292">(Browse Items)</text><!--MD5=[9b0ee41058c506f496d31c8c2a337121]
entity OrderService--><rect fill="#FFF3E0" filter="url(#f1ozj0kbh931z2)" height="52.5938" style="stroke: #333333; stroke-width: 1.5;" width="119" x="2388.16" y="624"/><rect fill="#FFF3E0" height="5" style="stroke: #333333; stroke-width: 1.5;" width="10" x="2383.16" y="629"/><rect fill="#FFF3E0" height="5" style="stroke: #333333; stroke-width: 1.5;" width="10" x="2383.16" y="666.5938"/><text fill="#000000" font-family="sans-serif" font-size="14" lengthAdjust="spacingAndGlyphs" textLength="93" x="2398.16" y="646.9951">Order Service</text><text fill="#000000" font-family="sans-serif" font-size="14" lengthAdjust="spacingAndGlyphs" textLength="99" x="2398.16" y="663.292">(Create/Track)</text><!--MD5=[1ca2de75bef3d0fcdc525ede790129b1]
entity PaymentService--><rect fill="#FFF3E0" filter="url(#f1ozj0kbh931z2)" height="52.5938" style="stroke: #333333; stroke-width: 1.5;" width="134" x="1892.66" y="624"/><rect fill="#FFF3E0" height="5" style="stroke: #333333; stroke-width: 1.5;" width="10" x="1887.66" y="629"/><rect fill="#FFF3E0" height="5" style="stroke: #333333; stroke-width: 1.5;" width="10" x="1887.66" y="666.5938"/><text fill="#000000" font-family="sans-serif" font-size="14" lengthAdjust="spacingAndGlyphs" textLength="114" x="1902.66" y="646.9951">Payment Service</text><text fill="#000000" font-family="sans-serif" font-size="14" lengthAdjust="spacingAndGlyphs" textLength="114" x="1902.66" y="663.292">(Razorpay/Cash)</text><!--MD5=[e1dfa85becc82c622d3715d39b2a6a94]
entity DiscountEngine--><rect fill="#FFF3E0" filter="url(#f1ozj0kbh931z2)" height="52.5938" style="stroke: #333333; stroke-width: 1.5;" width="134" x="2373.66" y="754"/><rect fill="#FFF3E0" height="5" style="stroke: #333333; stroke-width: 1.5;" width="10" x="2368.66" y="759"/><rect fill="#FFF3E0" height="5" style="stroke: #333333; stroke-width: 1.5;" width="10" x="2368.66" y="796.5938"/><text fill="#000000" font-family="sans-serif" font-size="14" lengthAdjust="spacingAndGlyphs" textLength="114" x="2383.66" y="776.9951">Discount Engine</text><text fill="#000000" font-family="sans-serif" font-size="14" lengthAdjust="spacingAndGlyphs" textLength="79" x="2383.66" y="793.292">(ML Pricing)</text><!--MD5=[37b9a048324f606cb5a26f461a47f72d]
entity InventoryService--><rect fill="#FFF3E0" filter="url(#f1ozj0kbh931z2)" height="52.5938" style="stroke: #333333; stroke-width: 1.5;" width="137" x="1532.16" y="624"/><rect fill="#FFF3E0" height="5" style="stroke: #333333; stroke-width: 1.5;" width="10" x="1527.16" y="629"/><rect fill="#FFF3E0" height="5" style="stroke: #333333; stroke-width: 1.5;" width="10" x="1527.16" y="666.5938"/><text fill="#000000" font-family="sans-serif" font-size="14" lengthAdjust="spacingAndGlyphs" textLength="117" x="1542.16" y="646.9951">Inventory Service</text><text fill="#000000" font-family="sans-serif" font-size="14" lengthAdjust="spacingAndGlyphs" textLength="92" x="1542.16" y="663.292">(Stock Mgmt)</text><!--MD5=[4be23415307477b21fc2b4d45e2cc58d]
entity NotificationService--><rect fill="#FFF3E0" filter="url(#f1ozj0kbh931z2)" height="52.5938" style="stroke: #333333; stroke-width: 1.5;" width="150" x="2061.66" y="624"/><rect fill="#FFF3E0" height="5" style="stroke: #333333; stroke-width: 1.5;" width="10" x="2056.66" y="629"/><rect fill="#FFF3E0" height="5" style="stroke: #333333; stroke-width: 1.5;" width="10" x="2056.66" y="666.5938"/><text fill="#000000" font-family="sans-serif" font-size="14" lengthAdjust="spacingAndGlyphs" textLength="130" x="2071.66" y="646.9951">Notification Service</text><text fill="#000000" font-family="sans-serif" font-size="14" lengthAdjust="spacingAndGlyphs" textLength="124" x="2071.66" y="663.292">(SMS/WebSocket)</text><!--MD5=[936bfa2a32249ce65e58d2076fc930b4]
entity AnalyticsService--><rect fill="#FFF3E0" filter="url(#f1ozj0kbh931z2)" height="52.5938" style="stroke: #333333; stroke-width: 1.5;" width="153" x="1704.16" y="624"/><rect fill="#FFF3E0" height="5" style="stroke: #333333; stroke-width: 1.5;" width="10" x="1699.16" y="629"/><rect fill="#FFF3E0" height="5" style="stroke: #333333; stroke-width: 1.5;" width="10" x="1699.16" y="666.5938"/><text fill="#000000" font-family="sans-serif" font-size="14" lengthAdjust="spacingAndGlyphs" textLength="114" x="1714.16" y="646.9951">Analytics Service</text><text fill="#000000" font-family="sans-serif" font-size="14" lengthAdjust="spacingAndGlyphs" textLength="133" x="1714.16" y="663.292">(Metrics/Reporting)</text><!--MD5=[f9ba5bf973e7832d2ce5ed59077b93f7]
entity DB--><rect fill="#FFF3E0" filter="url(#f1ozj0kbh931z2)" height="52.5938" style="stroke: #333333; stroke-width: 1.5;" width="106" x="1055.66" y="907"/><rect fill="#FFF3E0" height="5" style="stroke: #333333; stroke-width: 1.5;" width="10" x="1050.66" y="912"/><rect fill="#FFF3E0" height="5" style="stroke: #333333; stroke-width: 1.5;" width="10" x="1050.66" y="949.5938"/><text fill="#000000" font-family="sans-serif" font-size="14" lengthAdjust="spacingAndGlyphs" textLength="81" x="1065.66" y="929.9951">PostgreSQL</text><text fill="#000000" font-family="sans-serif" font-size="14" lengthAdjust="spacingAndGlyphs" textLength="86" x="1065.66" y="946.292">Multi-Tenant</text><!--MD5=[7f2f8f021ba496bad1f94a1981c7f515]
entity Cache--><rect fill="#FFF3E0" filter="url(#f1ozj0kbh931z2)" height="52.5938" style="stroke: #333333; stroke-width: 1.5;" width="147" x="1197.16" y="907"/><rect fill="#FFF3E0" height="5" style="stroke: #333333; stroke-width: 1.5;" width="10" x="1192.16" y="912"/><rect fill="#FFF3E0" height="5" style="stroke: #333333; stroke-width: 1.5;" width="10" x="1192.16" y="949.5938"/><text fill="#000000" font-family="sans-serif" font-size="14" lengthAdjust="spacingAndGlyphs" textLength="39" x="1207.16" y="929.9951">Redis</text><text fill="#000000" font-family="sans-serif" font-size="14" lengthAdjust="spacingAndGlyphs" textLength="127" x="1207.16" y="946.292">Cache &amp; Sessions</text><!--MD5=[59ceac3e1bb6f0ece56988f2042cffc2]
entity Kafka--><rect fill="#FFF3E0" filter="url(#f1ozj0kbh931z2)" height="52.5938" style="stroke: #333333; stroke-width: 1.5;" width="112" x="908.66" y="907"/><rect fill="#FFF3E0" height="5" style="stroke: #333333; stroke-width: 1.5;" width="10" x="903.66" y="912"/><rect fill="#FFF3E0" height="5" style="stroke: #333333; stroke-width: 1.5;" width="10" x="903.66" y="949.5938"/><text fill="#000000" font-family="sans-serif" font-size="14" lengthAdjust="spacingAndGlyphs" textLength="37" x="918.66" y="929.9951">Kafka</text><text fill="#000000" font-family="sans-serif" font-size="14" lengthAdjust="spacingAndGlyphs" textLength="92" x="918.66" y="946.292">Event Stream</text><!--MD5=[7688604ef0ac55f40a8f292191399b40]
entity Razorpay--><rect fill="#FFF3E0" filter="url(#f1ozj0kbh931z2)" height="52.5938" style="stroke: #333333; stroke-width: 1.5;" width="153" x="1646.16" y="907"/><rect fill="#FFF3E0" height="5" style="stroke: #333333; stroke-width: 1.5;" width="10" x="1641.16" y="912"/><rect fill="#FFF3E0" height="5" style="stroke: #333333; stroke-width: 1.5;" width="10" x="1641.16" y="949.5938"/><text fill="#000000" font-family="sans-serif" font-size="14" lengthAdjust="spacingAndGlyphs" textLength="64" x="1656.16" y="929.9951">Razorpay</text><text fill="#000000" font-family="sans-serif" font-size="14" lengthAdjust="spacingAndGlyphs" textLength="133" x="1656.16" y="946.292">(Payment Gateway)</text><!--MD5=[2a4a9f02db2d080640020709b526018d]
entity SMS--><rect fill="#FFF3E0" filter="url(#f1ozj0kbh931z2)" height="52.5938" style="stroke: #333333; stroke-width: 1.5;" width="114" x="1834.66" y="907"/><rect fill="#FFF3E0" height="5" style="stroke: #333333; stroke-width: 1.5;" width="10" x="1829.66" y="912"/><rect fill="#FFF3E0" height="5" style="stroke: #333333; stroke-width: 1.5;" width="10" x="1829.66" y="949.5938"/><text fill="#000000" font-family="sans-serif" font-size="14" lengthAdjust="spacingAndGlyphs" textLength="63" x="1844.66" y="929.9951">SMS/SNS</text><text fill="#000000" font-family="sans-serif" font-size="14" lengthAdjust="spacingAndGlyphs" textLength="94" x="1844.66" y="946.292">(Notifications)</text><!--MD5=[cdb255f1da5cb6c24ab746d9b7463778]
entity MLModel--><rect fill="#FFF3E0" filter="url(#f1ozj0kbh931z2)" height="52.5938" style="stroke: #333333; stroke-width: 1.5;" width="91" x="1984.16" y="907"/><rect fill="#FFF3E0" height="5" style="stroke: #333333; stroke-width: 1.5;" width="10" x="1979.16" y="912"/><rect fill="#FFF3E0" height="5" style="stroke: #333333; stroke-width: 1.5;" width="10" x="1979.16" y="949.5938"/><text fill="#000000" font-family="sans-serif" font-size="14" lengthAdjust="spacingAndGlyphs" textLength="65" x="1994.16" y="929.9951">ML Model</text><text fill="#000000" font-family="sans-serif" font-size="14" lengthAdjust="spacingAndGlyphs" textLength="71" x="1994.16" y="946.292">(XGBoost)</text><!--MD5=[4597a36bbce88b098162e644e240bdb2]
entity cust--><ellipse cx="2137.66" cy="17.5" fill="#E1F5FF" filter="url(#f1ozj0kbh931z2)" rx="8" ry="8" style="stroke: #A80036; stroke-width: 1.5;"/><path d="M2137.66,25.5 L2137.66,52.5 M2124.66,33.5 L2150.66,33.5 M2137.66,52.5 L2124.66,67.5 M2137.66,52.5 L2150.66,67.5 " fill="none" filter="url(#f1ozj0kbh931z2)" style="stroke: #A80036; stroke-width: 1.5;"/><text fill="#000000" font-family="sans-serif" font-size="14" lengthAdjust="spacingAndGlyphs" textLength="68" x="2103.66" y="85.9951">Customer</text><!--MD5=[36b19b1eaafd2be89ca2aa1e938e68d2]
entity staff--><ellipse cx="2286.66" cy="17.5" fill="#E1F5FF" filter="url(#f1ozj0kbh931z2)" rx="8" ry="8" style="stroke: #A80036; stroke-width: 1.5;"/><path d="M2286.66,25.5 L2286.66,52.5 M2273.66,33.5 L2299.66,33.5 M2286.66,52.5 L2273.66,67.5 M2286.66,52.5 L2299.66,67.5 " fill="none" filter="url(#f1ozj0kbh931z2)" style="stroke: #A80036; stroke-width: 1.5;"/><text fill="#000000" font-family="sans-serif" font-size="14" lengthAdjust="spacingAndGlyphs" textLength="30" x="2271.66" y="85.9951">Staff</text><!--MD5=[2df1acc326e88ba402b0c93d4df0b976]
link cust to CustomerPhone--><path d="M2137.66,89 C2137.66,121.54 2137.66,167 2137.66,196.84 " fill="none" id="cust-&gt;CustomerPhone" style="stroke: #A80036; stroke-width: 1.0;"/><polygon fill="#A80036" points="2137.66,201.85,2141.66,192.85,2137.66,196.85,2133.66,192.85,2137.66,201.85" style="stroke: #A80036; stroke-width: 1.0;"/><text fill="#000000" font-family="sans-serif" font-size="13" lengthAdjust="spacingAndGlyphs" textLength="61" x="2148.16" y="132.0669">Scans QR</text><text fill="#000000" font-family="sans-serif" font-size="13" lengthAdjust="spacingAndGlyphs" textLength="80" x="2138.66" y="147.1997">Phone Order</text><!--MD5=[a5bb7ce5dc4b25bc407e8e32945b38b2]
link staff to KitchenApp--><path d="M2286.66,89 C2286.66,121.54 2286.66,167 2286.66,196.84 " fill="none" id="staff-&gt;KitchenApp" style="stroke: #A80036; stroke-width: 1.0;"/><polygon fill="#A80036" points="2286.66,201.85,2290.66,192.85,2286.66,196.85,2282.66,192.85,2286.66,201.85" style="stroke: #A80036; stroke-width: 1.0;"/><text fill="#000000" font-family="sans-serif" font-size="13" lengthAdjust="spacingAndGlyphs" textLength="47" x="2306.66" y="132.0669">Kitchen</text><text fill="#000000" font-family="sans-serif" font-size="13" lengthAdjust="spacingAndGlyphs" textLength="85" x="2287.66" y="147.1997">Management</text><!--MD5=[8f3f308ad1da479c421737a408f79dc8]
link CustomerPhone to Gateway--><path d="M2130.78,255.27 C2123.51,287.54 2115.28,343.95 2132.66,388 C2139.6,405.59 2152.12,421.67 2165.18,434.97 " fill="none" id="CustomerPhone-&gt;Gateway" style="stroke: #A80036; stroke-width: 1.0;"/><polygon fill="#A80036" points="2168.87,438.65,2165.3159,429.4648,2165.3273,435.1216,2159.6705,435.133,2168.87,438.65" style="stroke: #A80036; stroke-width: 1.0;"/><text fill="#000000" font-family="sans-serif" font-size="13" lengthAdjust="spacingAndGlyphs" textLength="85" x="2146.16" y="300.0669">Browse Menu</text><text fill="#000000" font-family="sans-serif" font-size="13" lengthAdjust="spacingAndGlyphs" textLength="83" x="2147.16" y="315.1997">Create Order</text><text fill="#000000" font-family="sans-serif" font-size="13" lengthAdjust="spacingAndGlyphs" textLength="85" x="2146.16" y="330.3325">Check Status</text><path d="M2137.66,339.3984 L2137.66,379.3984 L2235.66,379.3984 L2235.66,349.3984 L2225.66,339.3984 L2137.66,339.3984 " fill="#FBFB77" filter="url(#f1ozj0kbh931z2)" style="stroke: #A80036; stroke-width: 1.0;"/><path d="M2225.66,339.3984 L2225.66,349.3984 L2235.66,349.3984 L2225.66,339.3984 " fill="#FBFB77" style="stroke: #A80036; stroke-width: 1.0;"/><text fill="#000000" font-family="sans-serif" font-size="13" lengthAdjust="spacingAndGlyphs" textLength="77" x="2143.66" y="356.4653">HTTP/HTTPS</text><text fill="#000000" font-family="sans-serif" font-size="13" lengthAdjust="spacingAndGlyphs" textLength="63" x="2143.66" y="371.5981">JWT Token</text><!--MD5=[22a374179807fe79e471f98176ce6345]
link KitchenApp to Gateway--><path d="M2281.97,255.15 C2275.84,286.82 2264.06,342.13 2248.66,388 C2243.48,403.41 2236.59,419.89 2230.16,434.16 " fill="none" id="KitchenApp-&gt;Gateway" style="stroke: #A80036; stroke-width: 1.0;"/><polygon fill="#A80036" points="2228,438.92,2235.3657,432.3819,2230.069,434.3682,2228.0828,429.0715,2228,438.92" style="stroke: #A80036; stroke-width: 1.0;"/><text fill="#000000" font-family="sans-serif" font-size="13" lengthAdjust="spacingAndGlyphs" textLength="76" x="2293.16" y="300.0669">View Orders</text><text fill="#000000" font-family="sans-serif" font-size="13" lengthAdjust="spacingAndGlyphs" textLength="93" x="2284.66" y="315.1997">Update Status</text><text fill="#000000" font-family="sans-serif" font-size="13" lengthAdjust="spacingAndGlyphs" textLength="111" x="2275.66" y="330.3325">Process Payment</text><path d="M2280.16,339.3984 L2280.16,379.3984 L2378.16,379.3984 L2378.16,349.3984 L2368.16,339.3984 L2280.16,339.3984 " fill="#FBFB77" filter="url(#f1ozj0kbh931z2)" style="stroke: #A80036; stroke-width: 1.0;"/><path d="M2368.16,339.3984 L2368.16,349.3984 L2378.16,349.3984 L2368.16,339.3984 " fill="#FBFB77" style="stroke: #A80036; stroke-width: 1.0;"/><text fill="#000000" font-family="sans-serif" font-size="13" lengthAdjust="spacingAndGlyphs" textLength="77" x="2286.16" y="356.4653">HTTP/HTTPS</text><text fill="#000000" font-family="sans-serif" font-size="13" lengthAdjust="spacingAndGlyphs" textLength="63" x="2286.16" y="371.5981">JWT Token</text><!--MD5=[5b7bac5bccd157b7c8abb4395dd332dd]
link Gateway to AuthService--><path d="M2244.46,508.27 C2252.58,517.95 2260.66,528.9 2266.66,540 C2280.09,564.84 2288.78,595.89 2293.86,618.57 " fill="none" id="Gateway-&gt;AuthService" style="stroke: #A80036; stroke-width: 1.0;"/><polygon fill="#A80036" points="2294.95,623.56,2296.9562,613.9176,2293.8926,618.6731,2289.1371,615.6095,2294.95,623.56" style="stroke: #A80036; stroke-width: 1.0;"/><text fill="#000000" font-family="sans-serif" font-size="13" lengthAdjust="spacingAndGlyphs" textLength="97" x="2275.66" y="553.0669">Route /api/auth</text><!--MD5=[dbf17fb5e002c06a85cf770706ee8a40]
link Gateway to MenuService--><path d="M2274.33,481.09 C2352.13,490.44 2478.95,509.82 2514.66,540 C2523.8,547.72 2521.9,553.35 2524.66,565 C2540.98,633.96 2582.47,669.93 2536.66,724 C2510.45,754.94 2396.08,744.48 2356.66,754 C2352.48,755.01 2348.21,756.12 2343.91,757.3 " fill="none" id="Gateway-&gt;MenuService" style="stroke: #A80036; stroke-width: 1.0;"/><polygon fill="#A80036" points="2338.87,758.72,2348.6138,760.1548,2343.6862,757.3766,2346.4644,752.449,2338.87,758.72" style="stroke: #A80036; stroke-width: 1.0;"/><text fill="#000000" font-family="sans-serif" font-size="13" lengthAdjust="spacingAndGlyphs" textLength="105" x="2557.66" y="655.0669">Route /api/menu</text><!--MD5=[ad018dcacadcd2fbc1142eac5c92a5ac]
link Gateway to OrderService--><path d="M2274.21,487.97 C2308.81,497.86 2350.89,514.18 2381.66,540 C2406.85,561.13 2424.98,594.47 2435.8,618.81 " fill="none" id="Gateway-&gt;OrderService" style="stroke: #A80036; stroke-width: 1.0;"/><polygon fill="#A80036" points="2437.86,623.56,2437.9285,613.7114,2435.8612,618.9769,2430.5956,616.9095,2437.86,623.56" style="stroke: #A80036; stroke-width: 1.0;"/><text fill="#000000" font-family="sans-serif" font-size="13" lengthAdjust="spacingAndGlyphs" textLength="109" x="2396.66" y="553.0669">Route /api/orders</text><!--MD5=[39783fccd40b3b89087ad5897930c376]
link Gateway to PaymentService--><path d="M2148.94,483.01 C2084.55,493.14 1990.61,512.24 1967.66,540 C1949.75,561.67 1949.82,594.72 1953.1,618.85 " fill="none" id="Gateway-&gt;PaymentService" style="stroke: #A80036; stroke-width: 1.0;"/><polygon fill="#A80036" points="1953.84,623.85,1956.4848,614.3629,1953.1109,618.9034,1948.5703,615.5295,1953.84,623.85" style="stroke: #A80036; stroke-width: 1.0;"/><text fill="#000000" font-family="sans-serif" font-size="13" lengthAdjust="spacingAndGlyphs" textLength="132" x="1968.66" y="553.0669">Route /api/payments</text><!--MD5=[542cd9dd04a55fdab7befc624f97ed33]
link Gateway to DiscountEngine--><path d="M2274.23,477.32 C2388.09,483.92 2622.03,504.65 2671.66,565 C2703.28,603.45 2698.65,635.18 2671.66,677 C2636.97,730.75 2566.87,756.52 2512.94,768.75 " fill="none" id="Gateway-&gt;DiscountEngine" style="stroke: #A80036; stroke-width: 1.0;"/><polygon fill="#A80036" points="2507.77,769.89,2517.4179,771.8693,2512.6539,768.819,2515.7043,764.055,2507.77,769.89" style="stroke: #A80036; stroke-width: 1.0;"/><text fill="#000000" font-family="sans-serif" font-size="13" lengthAdjust="spacingAndGlyphs" textLength="129" x="2694.66" y="655.0669">Route /api/discounts</text><!--MD5=[bf62a6a78f663eb4104f1402ff677ea1]
link Gateway to InventoryService--><path d="M2149.03,475.54 C2024.3,478.66 1750.06,491.05 1671.66,540 C1642.35,558.3 1622.76,593.66 1611.72,619.25 " fill="none" id="Gateway-&gt;InventoryService" style="stroke: #A80036; stroke-width: 1.0;"/><polygon fill="#A80036" points="1609.75,623.91,1616.9291,617.1675,1611.6903,619.3018,1609.556,614.0631,1609.75,623.91" style="stroke: #A80036; stroke-width: 1.0;"/><text fill="#000000" font-family="sans-serif" font-size="13" lengthAdjust="spacingAndGlyphs" textLength="127" x="1672.66" y="553.0669">Route /api/inventory</text><!--MD5=[0bcafef9c5c886ee2d8bca5e481fc665]
link Gateway to NotificationService--><path d="M2149.11,504.22 C2135.71,513.69 2123.29,525.55 2115.66,540 C2102.66,564.61 2110.89,596.11 2120.6,619.01 " fill="none" id="Gateway-&gt;NotificationService" style="stroke: #A80036; stroke-width: 1.0;"/><polygon fill="#A80036" points="2122.68,623.76,2122.7115,613.9112,2120.6639,619.1845,2115.3906,617.1369,2122.68,623.76" style="stroke: #A80036; stroke-width: 1.0;"/><text fill="#000000" font-family="sans-serif" font-size="13" lengthAdjust="spacingAndGlyphs" textLength="145" x="2116.66" y="553.0669">Route /api/notifications</text><!--MD5=[70b67c402320540517510f96b67dc9ba]
link Gateway to AnalyticsService--><path d="M2149.02,477.77 C2052.53,483.99 1873.54,500.61 1824.66,540 C1800.83,559.2 1789.83,593.28 1784.8,618.33 " fill="none" id="Gateway-&gt;AnalyticsService" style="stroke: #A80036; stroke-width: 1.0;"/><polygon fill="#A80036" points="1783.81,623.53,1789.4115,615.4292,1784.7383,618.6169,1781.5506,613.9438,1783.81,623.53" style="stroke: #A80036; stroke-width: 1.0;"/><text fill="#000000" font-family="sans-serif" font-size="13" lengthAdjust="spacingAndGlyphs" textLength="124" x="1825.66" y="553.0669">Route /api/analytics</text><!--MD5=[16921951992f2982953c97598f23d37f]
link AuthService to Cache--><path d="M2246.54,672.28 C2240.9,674.06 2235.2,675.68 2229.66,677 C1949.27,743.89 1843.67,625.46 1585.66,754 C1529.39,782.03 1540.51,821.96 1487.66,856 C1445.46,883.18 1392.4,902.11 1349.32,914.34 " fill="none" id="AuthService-&gt;Cache" style="stroke: #A80036; stroke-width: 1.0;"/><polygon fill="#A80036" points="1344.38,915.72,1354.1277,917.128,1349.1924,914.3634,1351.9571,909.4281,1344.38,915.72" style="stroke: #A80036; stroke-width: 1.0;"/><text fill="#000000" font-family="sans-serif" font-size="13" lengthAdjust="spacingAndGlyphs" textLength="67" x="1586.66" y="785.0669">Query OTP</text><!--MD5=[823e18daaea10b27e3653827a9d2a165]
link AuthService to DB--><path d="M2246.65,672.77 C2240.98,674.46 2235.25,675.92 2229.66,677 C2031.01,715.44 1515.99,658.1 1319.66,707 C1273.56,718.48 1259.16,722.43 1223.66,754 C1175.75,796.61 1139.86,863.72 1121.77,902.36 " fill="none" id="AuthService-&gt;DB" style="stroke: #A80036; stroke-width: 1.0;"/><polygon fill="#A80036" points="1119.65,906.93,1127.0572,900.439,1121.748,902.3915,1119.7956,897.0822,1119.65,906.93" style="stroke: #A80036; stroke-width: 1.0;"/><text fill="#000000" font-family="sans-serif" font-size="13" lengthAdjust="spacingAndGlyphs" textLength="77" x="1224.66" y="785.0669">Create User</text><!--MD5=[7a742fffd700f75f076c8151571274f8]
link AuthService to SMS--><path d="M2246.62,671.11 C2240.91,673.14 2235.17,675.13 2229.66,677 C2121.14,713.73 2071.35,680.27 1983.66,754 C1937.05,793.19 1911.22,861.99 1899.51,901.76 " fill="none" id="AuthService-&gt;SMS" style="stroke: #A80036; stroke-width: 1.0;"/><polygon fill="#A80036" points="1898.01,906.93,1904.3493,899.3926,1899.3968,902.1262,1896.6632,897.1737,1898.01,906.93" style="stroke: #A80036; stroke-width: 1.0;"/><text fill="#000000" font-family="sans-serif" font-size="13" lengthAdjust="spacingAndGlyphs" textLength="66" x="1984.66" y="785.0669">Send SMS</text><!--MD5=[3b036036d27cc8bd9d267dfc9bdc9234]
link MenuService to DB--><path d="M2240.31,807.07 C2224.83,816.5 2206.11,826.08 2187.66,831 C2156.58,839.29 1640.8,837.64 1608.66,839 C1501.82,843.52 1475.42,849.96 1368.66,856 C1347.67,857.19 1198.98,855.72 1179.66,864 C1160.38,872.26 1143.29,888.3 1130.72,902.78 " fill="none" id="MenuService-&gt;DB" style="stroke: #A80036; stroke-width: 1.0;"/><polygon fill="#A80036" points="1127.29,906.82,1136.1671,902.5541,1130.5287,903.0107,1130.0721,897.3723,1127.29,906.82" style="stroke: #A80036; stroke-width: 1.0;"/><text fill="#000000" font-family="sans-serif" font-size="13" lengthAdjust="spacingAndGlyphs" textLength="77" x="1609.66" y="852.0669">Query Menu</text><!--MD5=[46b5e8880ffb253f2535dc432cfa5068]
link MenuService to Cache--><path d="M2239.82,807.1 C2224.41,816.41 2205.88,825.89 2187.66,831 C2143.76,843.3 2028.18,836.5 1982.66,839 C1825.61,847.62 1785.62,843.67 1629.66,864 C1532.42,876.67 1421.76,899.01 1349.31,914.72 " fill="none" id="MenuService-&gt;Cache" style="stroke: #A80036; stroke-width: 1.0;"/><polygon fill="#A80036" points="1344.16,915.84,1353.8024,917.8462,1349.0469,914.7826,1352.1105,910.0271,1344.16,915.84" style="stroke: #A80036; stroke-width: 1.0;"/><text fill="#000000" font-family="sans-serif" font-size="13" lengthAdjust="spacingAndGlyphs" textLength="65" x="1983.66" y="852.0669">Cache 1hr</text><!--MD5=[5eb8cb7318ed4b171f6095961e1089db]
link OrderService to DB--><path d="M2388.02,671.44 C2382.16,673.35 2376.3,675.22 2370.66,677 C2256.51,712.93 2210.62,685.27 2112.66,754 C2077.8,778.45 2093.57,811.62 2055.66,831 C2038.74,839.65 1390.32,835.41 1371.66,839 C1351.07,842.96 1348.16,851.6 1327.66,856 C1295.46,862.91 1209.86,850.85 1179.66,864 C1160.43,872.38 1143.34,888.42 1130.76,902.87 " fill="none" id="OrderService-&gt;DB" style="stroke: #A80036; stroke-width: 1.0;"/><polygon fill="#A80036" points="1127.33,906.9,1136.2149,902.6506,1130.5757,903.0967,1130.1296,897.4574,1127.33,906.9" style="stroke: #A80036; stroke-width: 1.0;"/><text fill="#000000" font-family="sans-serif" font-size="13" lengthAdjust="spacingAndGlyphs" textLength="83" x="2113.66" y="785.0669">Create Order</text><!--MD5=[88f9cbe06d3b91bec3b15c670330cf48]
link OrderService to MenuService--><path d="M2411.44,677.24 C2398.51,686.53 2383.87,697.15 2370.66,707 C2351.77,721.08 2331.01,737.05 2313.81,750.4 " fill="none" id="OrderService-&gt;MenuService" style="stroke: #A80036; stroke-width: 1.0;"/><polygon fill="#A80036" points="2309.52,753.74,2319.0835,751.3864,2313.4714,750.6762,2314.1815,745.0641,2309.52,753.74" style="stroke: #A80036; stroke-width: 1.0;"/><text fill="#000000" font-family="sans-serif" font-size="13" lengthAdjust="spacingAndGlyphs" textLength="63" x="2371.66" y="720.0669">Get Items</text><!--MD5=[cba9f41d4c164ce9fddfc5d71efab392]
link OrderService to DiscountEngine--><path d="M2446.26,677.1 C2445.13,697.76 2443.54,726.91 2442.34,748.83 " fill="none" id="OrderService-&gt;DiscountEngine" style="stroke: #A80036; stroke-width: 1.0;"/><polygon fill="#A80036" points="2442.06,753.95,2446.542,745.1801,2442.331,748.9574,2438.5537,744.7464,2442.06,753.95" style="stroke: #A80036; stroke-width: 1.0;"/><text fill="#000000" font-family="sans-serif" font-size="13" lengthAdjust="spacingAndGlyphs" textLength="83" x="2444.66" y="720.0669">Get Discount</text><!--MD5=[4527f7f7de125d15a5615c7990882179]
link OrderService to Kafka--><path d="M2387.93,672.82 C2382.14,674.42 2376.32,675.85 2370.66,677 C1952.9,761.72 1815.1,607.89 1414.66,754 C1359.28,774.21 1361.6,809.63 1306.66,831 C1194.81,874.5 1147.51,813.46 1038.66,864 C1019.5,872.9 1001.96,888.62 988.78,902.76 " fill="none" id="OrderService-&gt;Kafka" style="stroke: #A80036; stroke-width: 1.0;"/><polygon fill="#A80036" points="985.17,906.7,994.2043,902.778,988.5525,903.0178,988.3127,897.366,985.17,906.7" style="stroke: #A80036; stroke-width: 1.0;"/><text fill="#000000" font-family="sans-serif" font-size="13" lengthAdjust="spacingAndGlyphs" textLength="92" x="1415.66" y="785.0669">Publish Events</text><!--MD5=[f4882ef9596407f7150dd54876ec69b8]
link PaymentService to DB--><path d="M1892.28,673.36 C1886.36,674.78 1880.43,676.03 1874.66,677 C1565.84,729.06 1477.35,643.62 1170.66,707 C1113.35,718.84 1080.84,705.8 1047.66,754 C1015.59,800.59 1054.55,865.56 1083.3,902.9 " fill="none" id="PaymentService-&gt;DB" style="stroke: #A80036; stroke-width: 1.0;"/><polygon fill="#A80036" points="1086.4,906.87,1084.0032,897.3172,1083.3185,902.9325,1077.7032,902.2477,1086.4,906.87" style="stroke: #A80036; stroke-width: 1.0;"/><text fill="#000000" font-family="sans-serif" font-size="13" lengthAdjust="spacingAndGlyphs" textLength="104" x="1048.66" y="785.0669">Create Payment</text><!--MD5=[a0fe04cb96ffc1cc6480d158024a2d12]
link PaymentService to Razorpay--><path d="M1892.3,672.85 C1861.73,682.8 1825.22,695.06 1792.66,707 C1740.05,726.29 1707.04,707.57 1675.66,754 C1644.7,799.79 1676.8,864.91 1701.04,902.53 " fill="none" id="PaymentService-&gt;Razorpay" style="stroke: #A80036; stroke-width: 1.0;"/><polygon fill="#A80036" points="1703.95,906.97,1702.3628,897.2499,1701.2095,902.7879,1695.6715,901.6346,1703.95,906.97" style="stroke: #A80036; stroke-width: 1.0;"/><text fill="#000000" font-family="sans-serif" font-size="13" lengthAdjust="spacingAndGlyphs" textLength="98" x="1676.66" y="785.0669">Verify Webhook</text><!--MD5=[513c7b03446cb407f55156098a544a20]
link PaymentService to Kafka--><path d="M1892.3,673.49 C1886.38,674.88 1880.44,676.09 1874.66,677 C1571.67,724.84 794.59,642.72 494.66,707 C442.28,718.23 413.25,709.34 383.66,754 C364.76,782.53 362.28,804.27 383.66,831 C447.75,911.13 767.6,928.01 903.46,931.56 " fill="none" id="PaymentService-&gt;Kafka" style="stroke: #A80036; stroke-width: 1.0;"/><polygon fill="#A80036" points="908.61,931.69,899.7158,927.46,903.6117,931.5615,899.5102,935.4573,908.61,931.69" style="stroke: #A80036; stroke-width: 1.0;"/><text fill="#000000" font-family="sans-serif" font-size="13" lengthAdjust="spacingAndGlyphs" textLength="92" x="384.66" y="785.0669">Publish Events</text><!--MD5=[c9cef3d14bfc916e8f7a0ed32e3febcc]
link DiscountEngine to MLModel--><path d="M2401.5,807.12 C2387.69,815.46 2371.83,824.29 2356.66,831 C2262.36,872.74 2145.7,904.52 2080.29,920.67 " fill="none" id="DiscountEngine-&gt;MLModel" style="stroke: #A80036; stroke-width: 1.0;"/><polygon fill="#A80036" points="2075.29,921.9,2084.9867,923.6246,2080.1441,920.7008,2083.0679,915.8581,2075.29,921.9" style="stroke: #A80036; stroke-width: 1.0;"/><text fill="#000000" font-family="sans-serif" font-size="13" lengthAdjust="spacingAndGlyphs" textLength="90" x="2331.66" y="852.0669">Get Prediction</text><!--MD5=[781e16bed1da0843a386bd863a65a70b]
link DiscountEngine to DB--><path d="M2405.63,807.21 C2391.19,816.42 2373.83,825.8 2356.66,831 C2325.99,840.29 2244.6,836.41 2212.66,839 C2141.82,844.75 2124.61,851.89 2053.66,856 C2029.42,857.4 1202.13,854.81 1179.66,864 C1160.1,872 1142.9,888.21 1130.33,902.85 " fill="none" id="DiscountEngine-&gt;DB" style="stroke: #A80036; stroke-width: 1.0;"/><polygon fill="#A80036" points="1126.91,906.92,1135.7604,902.5991,1130.125,903.0906,1129.6334,897.4552,1126.91,906.92" style="stroke: #A80036; stroke-width: 1.0;"/><text fill="#000000" font-family="sans-serif" font-size="13" lengthAdjust="spacingAndGlyphs" textLength="73" x="2213.66" y="852.0669">Store Rules</text><!--MD5=[b450040887852b00c751ef25fedc50d8]
link InventoryService to DB--><path d="M1531.89,652.92 C1367.14,656.88 953.65,670.27 820.66,707 C776.02,719.33 751.92,714.55 727.66,754 C709.73,783.15 706.84,803.84 727.66,831 C753.7,864.97 778.34,849.62 820.66,856 C844.63,859.61 1016.39,854.44 1038.66,864 C1057.8,872.22 1074.64,888.25 1087.01,902.74 " fill="none" id="InventoryService-&gt;DB" style="stroke: #A80036; stroke-width: 1.0;"/><polygon fill="#A80036" points="1090.38,906.78,1087.6773,897.3092,1087.1734,902.9436,1081.5391,902.4397,1090.38,906.78" style="stroke: #A80036; stroke-width: 1.0;"/><text fill="#000000" font-family="sans-serif" font-size="13" lengthAdjust="spacingAndGlyphs" textLength="74" x="728.66" y="785.0669">Track Stock</text><!--MD5=[dc024e5a54e74c2c7257e9ef274d2244]
link InventoryService to Kafka--><path d="M1532.11,651.31 C1282.13,651.05 420.11,654.11 150.66,707 C90.78,718.75 56.65,704.01 21.66,754 C2.03,782.04 -0.12,804.6 21.66,831 C58.82,876.05 92.85,847.7 150.66,856 C430.18,896.12 766.84,920.08 903.03,928.77 " fill="none" id="InventoryService-&gt;Kafka" style="stroke: #A80036; stroke-width: 1.0;"/><polygon fill="#A80036" points="908.18,929.1,899.4625,924.5168,903.1908,928.7712,898.9364,932.4995,908.18,929.1" style="stroke: #A80036; stroke-width: 1.0;"/><text fill="#000000" font-family="sans-serif" font-size="13" lengthAdjust="spacingAndGlyphs" textLength="110" x="22.66" y="785.0669">Consume/Publish</text><!--MD5=[f62a0b3bf6f1c1bf109ff9f4b9399de4]
link NotificationService to Kafka--><path d="M2061.41,673.89 C2055.77,675.1 2050.15,676.16 2044.66,677 C1885.19,701.48 704.01,635.37 594.66,754 C498.59,858.23 774.69,908.21 903,925.35 " fill="none" id="NotificationService-&gt;Kafka" style="stroke: #A80036; stroke-width: 1.0;"/><polygon fill="#A80036" points="908.25,926.04,899.8537,920.892,903.2934,925.3829,898.8024,928.8226,908.25,926.04" style="stroke: #A80036; stroke-width: 1.0;"/><text fill="#000000" font-family="sans-serif" font-size="13" lengthAdjust="spacingAndGlyphs" textLength="108" x="595.66" y="785.0669">Consume Events</text><!--MD5=[aae9a50b6172eaac551c7ce0932671ce]
link NotificationService to SMS--><path d="M2061.37,672.45 C2055.72,674 2050.1,675.53 2044.66,677 C1953.11,701.73 1893.83,672.31 1845.66,754 C1817.77,801.28 1847.91,865.34 1870.83,902.46 " fill="none" id="NotificationService-&gt;SMS" style="stroke: #A80036; stroke-width: 1.0;"/><polygon fill="#A80036" points="1873.59,906.86,1872.1884,897.1114,1870.9297,902.6264,1865.4147,901.3678,1873.59,906.86" style="stroke: #A80036; stroke-width: 1.0;"/><text fill="#000000" font-family="sans-serif" font-size="13" lengthAdjust="spacingAndGlyphs" textLength="66" x="1846.66" y="785.0669">Send SMS</text><!--MD5=[b97aee286df7e04afcb921816decc86b]
link AnalyticsService to DB--><path d="M1704.01,673.78 C1698.17,675.02 1692.34,676.12 1686.66,677 C1382.46,724.26 1295.94,643.76 994.66,707 C938.2,718.85 906.24,706.39 873.66,754 C854.33,782.24 852.05,804.47 873.66,831 C908.34,873.58 940.75,845.53 994.66,856 C1014.17,859.79 1021,854.87 1038.66,864 C1056.75,873.35 1073.23,888.94 1085.65,902.89 " fill="none" id="AnalyticsService-&gt;DB" style="stroke: #A80036; stroke-width: 1.0;"/><polygon fill="#A80036" points="1089.04,906.77,1086.1238,897.3628,1085.7475,903.0071,1080.1032,902.6308,1089.04,906.77" style="stroke: #A80036; stroke-width: 1.0;"/><text fill="#000000" font-family="sans-serif" font-size="13" lengthAdjust="spacingAndGlyphs" textLength="102" x="874.66" y="785.0669">Aggregate Data</text><!--MD5=[1046057dbd901e863bececb128a1983e]
link AnalyticsService to Kafka--><path d="M1704.03,673.92 C1698.19,675.12 1692.35,676.18 1686.66,677 C1388.35,720.11 626.74,650.58 330.66,707 C271.54,718.27 238.05,704.61 203.66,754 C184.11,782.09 181.92,804.57 203.66,831 C248.06,885 730.83,918.66 903.6,929.05 " fill="none" id="AnalyticsService-&gt;Kafka" style="stroke: #A80036; stroke-width: 1.0;"/><polygon fill="#A80036" points="908.62,929.35,899.8765,924.8167,903.629,929.0497,899.396,932.8022,908.62,929.35" style="stroke: #A80036; stroke-width: 1.0;"/><text fill="#000000" font-family="sans-serif" font-size="13" lengthAdjust="spacingAndGlyphs" textLength="108" x="204.66" y="785.0669">Consume Events</text><!--MD5=[aa91695f93b419e888c4e6ae621f4a5e]
@startuml IntelliDine_System_Collaboration
skinparam actorBackgroundColor #e1f5ff
skinparam componentBackgroundColor #fff3e0
skinparam packageBackgroundColor #f3e5f5
skinparam componentBorderColor #333333

actor Customer as cust
actor Staff as staff

package "Client Layer" {
  component [QR Scanner\n& Menu] as CustomerPhone
  component [Kitchen Display\nSystem] as KitchenApp
}

package "API Layer" {
  component [API Gateway\nPort 3100\n(JWT Validation)] as Gateway
}

package "Business Logic Layer\n(Microservices)" {
  component [Auth Service\n(OTP/Login)] as AuthService
  component [Menu Service\n(Browse Items)] as MenuService
  component [Order Service\n(Create/Track)] as OrderService
  component [Payment Service\n(Razorpay/Cash)] as PaymentService
  component [Discount Engine\n(ML Pricing)] as DiscountEngine
  component [Inventory Service\n(Stock Mgmt)] as InventoryService
  component [Notification Service\n(SMS/WebSocket)] as NotificationService
  component [Analytics Service\n(Metrics/Reporting)] as AnalyticsService
}

package "Data & Event Layer" {
  database [PostgreSQL\nMulti-Tenant] as DB
  database [Redis\nCache & Sessions] as Cache
  queue [Kafka\nEvent Stream] as Kafka
}

package "External Services" {
  component [Razorpay\n(Payment Gateway)] as Razorpay
  component [SMS/SNS\n(Notifications)] as SMS
  component [ML Model\n(XGBoost)] as MLModel
}

cust - -> CustomerPhone: Scans QR\nPhone Order
staff - -> KitchenApp: Kitchen\nManagement

CustomerPhone - -> Gateway: Browse Menu\nCreate Order\nCheck Status
note on link: HTTP/HTTPS\nJWT Token

KitchenApp - -> Gateway: View Orders\nUpdate Status\nProcess Payment
note on link: HTTP/HTTPS\nJWT Token

Gateway - -> AuthService: Route /api/auth
Gateway - -> MenuService: Route /api/menu
Gateway - -> OrderService: Route /api/orders
Gateway - -> PaymentService: Route /api/payments
Gateway - -> DiscountEngine: Route /api/discounts
Gateway - -> InventoryService: Route /api/inventory
Gateway - -> NotificationService: Route /api/notifications
Gateway - -> AnalyticsService: Route /api/analytics

AuthService - -> Cache: Query OTP
AuthService - -> DB: Create User
AuthService - -> SMS: Send SMS

MenuService - -> DB: Query Menu
MenuService - -> Cache: Cache 1hr

OrderService - -> DB: Create Order
OrderService - -> MenuService: Get Items
OrderService - -> DiscountEngine: Get Discount
OrderService - -> Kafka: Publish Events

PaymentService - -> DB: Create Payment
PaymentService - -> Razorpay: Verify Webhook
PaymentService - -> Kafka: Publish Events

DiscountEngine - -> MLModel: Get Prediction
DiscountEngine - -> DB: Store Rules

InventoryService - -> DB: Track Stock
InventoryService - -> Kafka: Consume/Publish

NotificationService - -> Kafka: Consume Events
NotificationService - -> SMS: Send SMS

AnalyticsService - -> DB: Aggregate Data
AnalyticsService - -> Kafka: Consume Events

@enduml

PlantUML version 1.2020.02(Sun Mar 01 10:22:07 UTC 2020)
(GPL source distribution)
Java Runtime: OpenJDK Runtime Environment
JVM: OpenJDK 64-Bit Server VM
Java Version: 21.0.8+9-Ubuntu-0ubuntu124.04.1
Operating System: Linux
Default Encoding: UTF-8
Language: en
Country: US
--></g></svg>